<svg width="20" height="20" viewBox="0 0 20 20" fill="none" xmlns="http://www.w3.org/2000/svg">
<path d="M8.83342 11.8333L7.02091 10.0208C6.86814 9.86799 6.67703 9.79494 6.44758 9.80161C6.21814 9.80827 6.0273 9.88827 5.87508 10.0416C5.7223 10.1944 5.64591 10.3888 5.64591 10.6249C5.64591 10.8611 5.7223 11.0555 5.87508 11.2083L8.25008 13.5833C8.40286 13.736 8.5973 13.8124 8.83342 13.8124C9.06953 13.8124 9.26397 13.736 9.41675 13.5833L14.1459 8.85411C14.2987 8.70133 14.3717 8.51022 14.3651 8.28077C14.3584 8.05133 14.2784 7.86049 14.1251 7.70827C13.9723 7.55549 13.7779 7.47911 13.5417 7.47911C13.3056 7.47911 13.1112 7.55549 12.9584 7.70827L8.83342 11.8333ZM10.0001 18.6666C8.8473 18.6666 7.76397 18.4477 6.75008 18.0099C5.73619 17.5722 4.85425 16.9785 4.10425 16.2291C3.35425 15.4791 2.76064 14.5972 2.32341 13.5833C1.88619 12.5694 1.6673 11.486 1.66675 10.3333C1.66675 9.18049 1.88564 8.09716 2.32341 7.08327C2.76119 6.06938 3.3548 5.18744 4.10425 4.43744C4.85425 3.68744 5.73619 3.09383 6.75008 2.65661C7.76397 2.21938 8.8473 2.00049 10.0001 1.99994C11.1529 1.99994 12.2362 2.21883 13.2501 2.65661C14.264 3.09438 15.1459 3.68799 15.8959 4.43744C16.6459 5.18744 17.2398 6.06938 17.6776 7.08327C18.1154 8.09716 18.334 9.18049 18.3334 10.3333C18.3334 11.486 18.1145 12.5694 17.6767 13.5833C17.239 14.5972 16.6454 15.4791 15.8959 16.2291C15.1459 16.9791 14.264 17.573 13.2501 18.0108C12.2362 18.4485 11.1529 18.6672 10.0001 18.6666ZM10.0001 16.9999C11.8473 16.9999 13.4204 16.3508 14.7192 15.0524C16.0181 13.7541 16.6673 12.181 16.6667 10.3333C16.6667 8.48605 16.0176 6.91299 14.7192 5.61411C13.4209 4.31522 11.8479 3.66605 10.0001 3.66661C8.15286 3.66661 6.5798 4.31577 5.28091 5.61411C3.98203 6.91244 3.33286 8.48549 3.33341 10.3333C3.33341 12.1805 3.98258 13.7535 5.28091 15.0524C6.57925 16.3513 8.1523 17.0005 10.0001 16.9999Z" fill="white"/>
</svg>
