<svg width="404" height="404" viewBox="0 0 404 404" fill="none" xmlns="http://www.w3.org/2000/svg">
<circle cx="201.948" cy="202" r="165.365" transform="rotate(-13.8953 201.948 202)" stroke="url(#paint0_linear_20_785)" stroke-width="2"/>
<path d="M308.581 175.474C323.173 234.46 287.185 294.108 228.199 308.7C169.212 323.292 109.565 287.304 94.9727 228.318C80.3803 169.332 116.369 109.685 175.355 95.0922C234.341 80.4998 293.988 116.488 308.581 175.474ZM108.414 224.993C121.17 276.556 173.311 308.015 224.873 295.259C276.436 282.503 307.895 230.362 295.139 178.799C282.383 127.237 230.243 95.7775 178.68 108.533C127.117 121.289 95.658 173.43 108.414 224.993Z" fill="url(#paint1_linear_20_785)"/>
<circle cx="201.948" cy="202" r="92.1917" transform="rotate(-13.8953 201.948 202)" stroke="url(#paint2_linear_20_785)" stroke-width="2"/>
<defs>
<linearGradient id="paint0_linear_20_785" x1="86.3213" y1="323.839" x2="316.885" y2="78.0893" gradientUnits="userSpaceOnUse">
<stop stop-color="#EBBA34" stop-opacity="0.25"/>
<stop offset="1" stop-color="#EBBA34" stop-opacity="0"/>
</linearGradient>
<linearGradient id="paint1_linear_20_785" x1="130.421" y1="285.118" x2="262.854" y2="114.754" gradientUnits="userSpaceOnUse">
<stop stop-color="#EBBA34" stop-opacity="0.25"/>
<stop offset="0.832086" stop-color="#EBBA34" stop-opacity="0"/>
</linearGradient>
<linearGradient id="paint2_linear_20_785" x1="130.64" y1="261.997" x2="269.813" y2="138.069" gradientUnits="userSpaceOnUse">
<stop stop-color="#EBBA34" stop-opacity="0.35"/>
<stop offset="1" stop-color="#EBBA34" stop-opacity="0"/>
</linearGradient>
</defs>
</svg>
