<svg width="40" height="40" viewBox="0 0 40 40" fill="none" xmlns="http://www.w3.org/2000/svg">
<path d="M20 0C8.97287 0 0 8.97287 0 20C0 31.0271 8.97287 40 20 40C31.0271 40 40 31.0271 40 20C40 8.97287 31.0271 0 20 0ZM20 38.6654C9.70752 38.6654 1.33458 30.2925 1.33458 20C1.33458 9.70752 9.70752 1.33458 20 1.33458C30.2925 1.33458 38.6654 9.70752 38.6654 20C38.6654 30.2925 30.2925 38.6654 20 38.6654Z" fill="white"/>
<path d="M24.4444 9H21.48C17.9467 9 17.2222 11.0265 17.2222 14.0692L17.2244 16H15.5556C15.2489 16 15 16.2613 15 16.5833V20.0833C15 20.4053 15.2489 20.6667 15.5556 20.6667H17.2222V29.4167C17.2222 29.7387 17.4711 30 17.7778 30H21.1756C21.4822 30 21.7311 29.7387 21.7311 29.4167L21.7333 20.6667H24.4444C24.7511 20.6667 25 20.4053 25 20.0833V16.5833C25 16.2613 24.7511 16 24.4444 16H21.7322L21.7356 14.3713C21.7356 13.5862 21.7356 13.5862 22.4344 13.585L24.4222 13.6667C24.5633 13.6713 24.72 13.6142 24.8289 13.5045C24.9378 13.3948 25 13.242 25 13.0833V9.58333C25 9.26133 24.7511 9 24.4444 9ZM23.8889 12.4767L22.4567 12.4183C20.7667 12.4183 20.6256 13.3832 20.6256 14.369L20.6211 16.581C20.6211 16.7362 20.6789 16.8843 20.7833 16.994C20.8867 17.1048 21.0278 17.1667 21.1756 17.1667H23.8889V19.5H21.1778C20.8711 19.5 20.6222 19.7613 20.6222 20.0833L20.62 28.8333H18.3333V20.0833C18.3333 19.7613 18.0844 19.5 17.7778 19.5H16.1111V17.1667H17.7811C17.9289 17.1667 18.07 17.1048 18.1744 16.9952C18.2789 16.8855 18.3367 16.7373 18.3367 16.5822L18.3333 14.068C18.3333 11.4255 18.8044 10.1667 21.48 10.1667H23.8889V12.4767Z" fill="white"/>
</svg>
