<svg width="146" height="146" viewBox="0 0 146 146" fill="none" xmlns="http://www.w3.org/2000/svg">
<circle cx="73" cy="73" r="73" fill="#1E1E1E"/>
<path d="M27 116.167C33.6873 108.104 56.9203 80.4079 63.6307 72.3611C60.0656 66.3234 56.4414 60.3198 52.8623 54.288C54.4417 53.3367 56.1197 52.5515 57.6593 51.5369C57.3627 50.8398 56.938 50.2114 56.5331 49.5775C53.5187 51.4558 50.4196 53.1951 47.3741 55.0209C46.6769 53.777 45.9111 52.5693 45.2574 51.299C48.3297 49.5543 51.3742 47.7544 54.3961 45.9238C54.2931 45.6117 54.1172 45.3332 53.967 45.0493C50.8824 46.8518 47.8251 48.7025 44.7254 50.4774C44.0519 49.2336 43.2952 48.0411 42.634 46.7907C45.6982 45.0035 48.755 43.2017 51.8043 41.3852C51.6611 41.1067 51.5174 40.8304 51.3752 40.554C48.245 42.2603 45.2156 44.1542 42.1358 45.9492C41.3914 44.7448 40.7152 43.4998 39.9762 42.2933C42.7268 40.6276 45.5272 39.0527 48.2654 37.3691C47.8502 36.737 47.478 36.0771 47.1515 35.3941C47.4631 35.2167 47.7726 35.0366 48.0841 34.8565C47.8948 34.5704 47.7002 34.2865 47.5125 34.0026C48.8049 33.2416 50.0994 32.4883 51.3892 31.7203C51.5603 32.0096 51.7313 32.3011 51.9024 32.5899C52.2917 32.4277 52.6612 32.0324 53.0961 32.0681C53.5085 32.6408 53.8206 33.28 54.1848 33.8857C56.9884 32.3114 59.7009 30.5819 62.5013 29C63.1985 30.232 63.8661 31.4845 64.5853 32.7041C62.5034 33.9479 60.3895 35.1458 58.32 36.4135C57.2893 37.0322 56.2762 37.6888 55.1876 38.1982C55.3383 38.4848 55.4718 38.7866 55.688 39.0349C56.6409 38.619 57.493 38.0073 58.4031 37.506C60.6131 36.1723 62.8681 34.9198 65.0529 33.551C65.7967 34.7727 66.5459 36.0025 67.1846 37.288C64.0206 39.0884 60.8968 40.9569 57.7692 42.8179C57.9655 43.0883 58.1591 43.3587 58.3591 43.6291C61.4695 41.7654 64.5937 39.9231 67.7316 38.1019C68.4105 39.3458 69.1597 40.5459 69.8284 41.7957C66.6858 43.601 63.5985 45.4976 60.4436 47.285C60.8057 47.9973 61.2036 48.6904 61.6358 49.3617C63.0462 48.5451 64.4587 47.7366 65.8943 46.9681C68.3521 51.2935 70.8709 55.5811 73.334 59.899C76.8611 56.3442 80.4338 52.8278 83.8933 49.2044C88.2124 49.1562 92.5342 49.2098 96.8561 49.2044C74.4892 70.7458 52.0863 92.2503 29.6476 113.718C28.7697 114.537 27.9653 115.447 27 116.167Z" fill="#EDBC1A"/>
<path d="M119 30.5264C112.313 38.5889 89.0797 66.2857 82.3725 74.3325C85.9371 80.3718 89.5629 86.376 93.1404 92.4077C91.5616 93.3584 89.882 94.1443 88.3434 95.1583C88.64 95.8554 89.0647 96.4844 89.4696 97.1182C92.484 95.2394 95.5831 93.5001 98.6286 91.6749C99.3257 92.9188 100.092 94.1264 100.745 95.3968C97.673 97.1409 94.6285 98.9413 91.6066 100.772C91.7096 101.083 91.8855 101.363 92.0356 101.646C95.1203 99.8439 98.1776 97.9932 101.277 96.2183C101.951 97.4622 102.708 98.6547 103.369 99.9045C100.304 101.692 97.2473 103.494 94.1984 105.313C94.3422 105.592 94.4853 105.868 94.6275 106.144C97.7577 104.438 100.787 102.544 103.867 100.749C104.611 101.954 105.287 103.198 106.026 104.405C103.276 106.071 100.476 107.645 97.7373 109.327C98.1523 109.959 98.5244 110.619 98.8511 111.302C98.5396 111.479 98.2301 111.659 97.9186 111.839C98.1095 112.126 98.3031 112.41 98.4918 112.694C97.1994 113.454 95.9049 114.208 94.6151 114.975C94.444 114.687 94.273 114.395 94.1024 114.106C93.7126 114.268 93.3431 114.664 92.9082 114.628C92.4958 114.055 92.1842 113.416 91.8195 112.811C89.0164 114.385 86.3034 116.114 83.503 117.696C82.8058 116.464 82.1376 115.209 81.4185 113.992C83.5003 112.748 85.6148 111.55 87.6838 110.283C88.7145 109.664 89.7275 109.008 90.8162 108.495C90.6655 108.209 90.5319 107.907 90.3158 107.659C89.3629 108.074 88.5107 108.686 87.6007 109.187C85.3907 110.521 83.1356 111.773 80.9482 113.143C80.2044 111.92 79.4552 110.691 78.8165 109.406C81.9805 107.605 85.1043 105.737 88.2319 103.876C88.0356 103.605 87.842 103.335 87.642 103.064C84.5316 104.928 81.4074 106.77 78.2695 108.592C77.5906 107.348 76.8414 106.147 76.1727 104.897C79.3152 103.092 82.4026 101.196 85.5575 99.408C85.1956 98.696 84.7978 98.003 84.3659 97.3318C82.9555 98.1479 81.5424 98.9543 80.1068 99.7249C77.6528 95.4022 75.1339 91.1151 72.6724 86.7994C69.1453 90.3542 65.5727 93.8706 62.1132 97.4935C57.794 97.5417 53.4722 97.4887 49.1504 97.4935C71.513 75.9488 93.9139 54.4429 116.353 32.9757C117.232 32.1564 118.035 31.2451 119 30.5264Z" fill="white"/>
</svg>
