<svg xmlns="http://www.w3.org/2000/svg" viewBox="0 0 4535.65 1639.99"><defs><style>.cls-1{fill:#edbc1a;}.cls-2{fill:#fff;}</style></defs><g id="Camada_2" data-name="Camada 2"><g id="Camada_1-2" data-name="Camada 1"><path class="cls-1" d="M0,1611.77c124.7-149.09,557.93-661.21,683.06-810C616.58,690.13,549,579.12,482.26,467.59,511.71,450,543,435.48,571.71,416.72c-5.53-12.89-13.45-24.51-21-36.23-56.21,34.73-114,66.89-170.79,100.65-13-23-27.28-45.33-39.47-68.82,57.29-32.26,114.06-65.54,170.41-99.39-1.92-5.77-5.2-10.92-8-16.17-57.52,33.33-114.53,67.55-172.33,100.37-12.56-23-26.67-45.05-39-68.17q85.71-49.57,171-99.95c-2.67-5.15-5.35-10.26-8-15.37-58.37,31.55-114.86,66.57-172.29,99.76-13.88-22.27-26.49-45.29-40.27-67.6,51.29-30.8,103.51-59.92,154.57-91.05a309.39,309.39,0,0,1-20.77-36.52c5.81-3.28,11.58-6.61,17.39-9.94C389.63,103,386,97.75,382.5,92.5c24.1-14.07,48.24-28,72.29-42.2,3.19,5.35,6.38,10.74,9.57,16.08,7.26-3,14.15-10.31,22.26-9.65,7.69,10.59,13.51,22.41,20.3,33.61C559.2,61.23,609.78,29.25,662,0c13,22.78,25.45,45.94,38.86,68.49-38.82,23-78.24,45.15-116.83,68.59-19.22,11.44-38.11,23.58-58.41,33,2.81,5.3,5.3,10.88,9.33,15.47,17.77-7.69,33.66-19,50.63-28.27,41.21-24.66,83.26-47.82,124-73.13,13.87,22.59,27.84,45.33,39.75,69.1-59,33.29-117.25,67.84-175.57,102.25,3.66,5,7.27,10,11,15q87-51.69,174.77-102.2c12.66,23,26.63,45.19,39.1,68.3-58.6,33.38-116.17,68.45-175,101.5a435,435,0,0,0,22.23,38.4c26.3-15.1,52.64-30.05,79.41-44.26C771.1,412.22,818.07,491.5,864,571.34c65.77-65.73,132.39-130.75,196.9-197.75,80.54-.89,161.13.1,241.72,0Q677,971.06,49.37,1566.48C33,1581.62,18,1598.45,0,1611.77"/><polygon class="cls-2" points="1689.01 722.75 1431.98 722.75 1482.24 471.45 1293.04 471.45 1159.27 1140.31 1348.46 1140.31 1400.63 879.46 1657.67 879.46 1605.5 1140.31 1794.69 1140.31 1928.46 471.45 1739.27 471.45 1689.01 722.75"/><path class="cls-2" d="M2387.59,642.49q-56.87-28.66-136.16-28.67-93.66,0-164.35,39.18T1977.19,759.54Q1938,826.91,1938,912.9q0,71.67,34.4,124.7t96,82.17q61.62,29.16,144.76,29.14a442.19,442.19,0,0,0,115.14-15.28,310.34,310.34,0,0,0,105.58-51.6l-75.48-113.71q-24.87,20.07-57.81,31.06a211.62,211.62,0,0,1-67.37,11q-59.25,0-88.86-25.32-23.77-20.29-28.46-58.76H2496q4.77-20.07,7.64-41.09a325.18,325.18,0,0,0,2.87-44q0-67.85-31.05-119T2387.59,642.49ZM2170.69,764.8q28.17-22,72.14-22,34.4,0,57.81,13.85a77.64,77.64,0,0,1,33.44,39.18q6,15.27,5.65,34.88H2126.48c.7-2.09,1.41-4.16,2.16-6.21Q2142.48,786.78,2170.69,764.8Z"/><path class="cls-2" d="M2987,684.27A136.11,136.11,0,0,0,2937,638.19q-45.4-24.36-108.45-24.37a266.88,266.88,0,0,0-108.46,22.46,280.09,280.09,0,0,0-89.81,62.58q-38.7,40.14-60.68,94.6t-22,119.44q0,75.5,31.06,128t81.69,80.26q50.64,27.73,106.07,27.71,69.73,0,121.35-34.87a221.82,221.82,0,0,0,28.41-22.86l-10.26,49.13h172l103.2-517.89H2999.58Zm-93.43,300.29q-27.72,18.16-64,18.16-46.83,0-72.62-26.75t-25.8-71.67q0-43,15.77-75.48t44-51.12q28.17-18.65,63.54-18.64,46.82,0,72.62,27.23t25.8,72.15q0,43-15.76,75.48T2893.52,984.56Z"/><polygon class="cls-2" points="3335.92 431.32 3194.5 1140.31 3376.05 1140.31 3517.47 431.32 3335.92 431.32"/><path class="cls-2" d="M3822.26,506.81H3640.72l-26.83,134.72h-75.41l-27.71,135.69h76.1l-34.06,171q-12.43,63.07,5.73,108.46t61.16,68.79q43,23.41,103.19,23.41a353.46,353.46,0,0,0,71.19-7.16,216.1,216.1,0,0,0,63.54-23.41l-22.93-125.18a120.37,120.37,0,0,1-26.76,11.47,100.33,100.33,0,0,1-27.71,3.82q-27.72,0-39.17-15.76t-6.69-45.39l33.94-170.08h118L3913,641.53H3795.38Z"/><path class="cls-2" d="M4524.56,721.32q-20.07-53-66.41-80.26t-110.36-27.24q-57.33,0-112.27,26.76a207.37,207.37,0,0,0-38.46,24.29l46.58-233.55H4062.09l-141.42,709h181.55l51.6-256.07q12.41-59.24,44-87.91t77.4-28.67q44.91,0,61.63,26.76t6.21,76.44l-53.51,269.45h181.55l57.33-286.65Q4544.63,774.36,4524.56,721.32Z"/><path class="cls-2" d="M1715.54,28.22c-124.7,149.08-557.93,661.21-683,810,66.47,111.67,134.08,222.69,200.79,334.22-29.44,17.58-60.76,32.11-89.45,50.86,5.53,12.89,13.45,24.52,21,36.24,56.21-34.74,114-66.9,170.79-100.65,13,23,27.28,45.33,39.47,68.82-57.29,32.25-114.06,65.54-170.41,99.39,1.92,5.76,5.2,10.92,8,16.17,57.52-33.33,114.53-67.55,172.33-100.37,12.56,23,26.68,45.05,39,68.16q-85.72,49.57-171,100c2.68,5.16,5.35,10.27,8,15.38,58.37-31.55,114.86-66.57,172.29-99.76,13.88,22.27,26.49,45.28,40.27,67.6-51.29,30.8-103.51,59.91-154.57,91a311,311,0,0,1,20.77,36.52c-5.81,3.28-11.58,6.61-17.39,9.94,3.56,5.3,7.17,10.55,10.69,15.8-24.1,14.06-48.24,28-72.29,42.19-3.19-5.34-6.38-10.73-9.56-16.08-7.27,3-14.16,10.32-22.27,9.66-7.69-10.59-13.5-22.41-20.3-33.61-52.27,29.11-102.86,61.08-155.08,90.34-13-22.79-25.46-46-38.87-68.5,38.82-23,78.25-45.14,116.83-68.58,19.22-11.44,38.11-23.58,58.41-33.05-2.81-5.3-5.3-10.88-9.33-15.47-17.77,7.68-33.66,19-50.63,28.26-41.21,24.66-83.26,47.82-124.05,73.14-13.87-22.6-27.84-45.34-39.75-69.1,59-33.29,117.25-67.84,175.57-102.25-3.66-5-7.27-10-11-15q-87,51.68-174.77,102.2c-12.66-23-26.63-45.2-39.1-68.31,58.6-33.38,116.17-68.44,175-101.5a434.76,434.76,0,0,0-22.22-38.39c-26.3,15.09-52.65,30-79.42,44.25-45.76-79.93-92.73-159.2-138.63-239-65.77,65.73-132.39,130.75-196.9,197.74-80.54.89-161.13-.09-241.72,0Q1038.54,668.92,1666.18,73.51c16.4-15.15,31.36-32,49.36-45.29"/></g></g></svg>