<svg width="105" height="80" viewBox="0 0 105 80" fill="none" xmlns="http://www.w3.org/2000/svg">
<path d="M104.167 77.0867C103.589 76.623 102.28 75.7167 101.471 75.6109L99.7666 75.3126C99.3043 75.2164 98.5101 74.9239 98.0368 74.6757L96.1364 73.5789C95.5476 73.2114 94.3443 72.6687 93.3519 72.4032C92.4586 72.1627 90.7416 71.8625 89.5108 71.6893C88.4175 71.5354 87.46 70.9831 87.2508 70.7272C86.8198 70.2019 86.4034 69.8652 86.0732 69.7459C86.0071 69.6978 85.5999 69.3418 84.2132 67.2405C83.584 66.2861 82.8282 64.918 82.1624 63.7096C81.6799 62.836 81.225 62.0105 80.849 61.3909C79.9189 59.8573 79.1192 59.0011 78.3304 58.6913C77.5049 58.3661 76.4227 57.0076 75.7054 56.107C75.1735 55.4393 74.8818 55.0834 74.6415 54.9198C74.1701 54.4522 71.9835 50.3613 70.628 46.4994C69.1825 42.3778 68.0654 39.0316 67.3188 36.0894C67.1922 35.5911 67.0822 35.0331 66.9593 34.4077C66.4658 31.9216 65.7908 28.5157 63.3291 23.7956C61.7699 20.8054 58.6442 16.2296 56.3604 13.5973C52.9797 9.7027 49.92 7.5168 46.963 5.40401C45.989 4.70937 45.0131 4.01088 44.0207 3.25274C39.422 -0.272421 34.8875 -0.938198 29.6027 1.28427C25.2095 3.12767 24.5454 10.024 24.5161 10.407V12.6718C24.5161 13.8725 24.2042 15.358 23.9254 15.9429L22.047 20.2031C21.3592 21.8253 20.5539 24.727 20.2145 26.809C19.8935 28.7697 18.9837 32.4469 18.1876 35.008C17.4171 37.4845 16.0542 40.4997 15.2086 41.5965L11.6591 46.3513C10.5622 47.8656 9.42305 49.9303 9.06902 51.0541L8.46369 52.9648L7.48415 56.8748C6.95035 58.9953 6.00016 62.0355 5.36731 63.6442L4.21534 66.5671L1.89488 71.4411L1.0144 72.9843C0.909837 73.1652 0 74.7834 0 75.6397C0 76.294 0.40906 77.1291 0.78877 77.6294C1.32257 78.3259 2.56809 78.8512 3.52195 79.009C4.45013 79.1591 5.97631 79.2784 6.99804 79.2784H16.3165C18.0262 79.2784 20.187 79.0725 21.0106 78.6781L22.0892 78.1643C22.3002 78.0623 22.9495 77.7564 23.0358 77.0502C23.0853 76.6499 22.9275 76.2651 22.612 75.9938C22.2286 75.6667 21.6637 75.5108 21.0657 75.3473C20.8749 75.2953 20.686 75.2433 20.5209 75.1875L16.3734 73.6212L13.587 72.4147L12.7065 71.9549C12.2608 71.7182 11.6683 71.3545 11.4115 71.1602C11.362 71.1217 11.3179 71.0601 11.2996 71.1082C11.3289 70.8658 11.4042 70.4559 11.472 70.15C11.5436 69.8151 11.705 69.2725 11.8242 68.9415C11.9471 68.6067 12.1672 68.1064 12.3158 67.8197L14.1704 64.079L15.4067 61.7796L17.4777 58.5758L20.154 54.2059L23.2522 48.5083L25.0939 45.6605L26.222 44.0653C26.8604 43.1648 27.7666 41.7139 28.2453 40.8288L29.8192 37.8905C30.2503 37.0727 30.8538 35.7373 31.1931 34.8464C31.4848 34.0806 31.8553 33.4706 31.947 33.3725C32.545 32.9299 34.1354 30.7979 34.2015 30.7074L35.7368 28.6447L36.4705 27.7691C36.9585 27.1919 37.8463 25.8372 38.426 24.8617C39.0203 23.8572 39.798 22.6527 40.1227 22.2351C40.2144 22.1158 40.3135 22.008 40.4071 21.9118C40.5208 22.4737 40.6308 23.3839 40.6547 23.9804C40.684 24.7501 40.7978 25.8334 40.9152 26.4472C41.0454 27.1303 41.3481 27.9981 41.6214 28.458C41.8764 28.8929 42.3533 29.5221 42.7348 29.9223L45.0461 32.4469C45.0003 33.1512 45.0186 33.9305 45.1929 34.8676C45.5652 36.8899 47.5849 38.8238 49.5109 39.0046C49.9053 39.0431 50.2704 39.0604 50.6097 39.0604C51.1637 39.0604 51.6186 38.9912 52.0295 38.8911L52.1506 38.893C52.4459 38.9142 52.7926 39.045 52.8733 39.1028C52.998 39.2086 53.4731 39.7647 54.0051 40.4959C54.3646 40.9904 55.1149 42.0199 55.2286 42.5683C55.3295 43.0493 55.7881 43.921 56.4154 44.9389C56.1109 45.1005 55.7991 45.2391 55.5166 45.4527C51.8461 48.2081 51.47 54.2713 54.6765 58.9741C57.8829 63.675 63.4758 65.2605 67.1464 62.507C67.7847 62.0278 68.2855 61.4198 68.7239 60.7675C68.9697 61.0657 69.2375 61.3986 69.5494 61.795L71.1563 63.8481L76.5731 70.046L78.534 72.103C79.6566 73.2806 81.0782 74.6295 81.7716 75.1779C82.4577 75.7148 83.5345 76.2959 84.2719 76.2959C84.459 76.3113 85.167 76.6018 85.8035 77.0887C86.4456 77.5793 87.2967 78.3625 87.6654 78.7993C88.2506 79.4939 89.2631 80 90.0721 80H103.021C104.321 80 104.778 79.4324 104.932 78.9552C105.055 78.5838 105.114 77.8487 104.167 77.0867ZM36.8704 23.8399C36.2779 24.8424 35.4653 26.0527 35.0966 26.4895L32.7578 29.5183C31.8186 30.7805 31.0482 31.6618 30.8941 31.7908C30.1989 32.3026 29.5605 33.9401 29.489 34.1267C29.1808 34.9407 28.6067 36.2068 28.216 36.9496L26.6494 39.8725C26.2019 40.7018 25.3489 42.0661 24.749 42.9127L21.6967 47.4846L18.5801 53.2111L13.8475 60.7636L10.7053 66.898C10.5255 67.2386 10.2632 67.8428 10.1146 68.2488C9.96419 68.6548 9.77342 69.311 9.68537 69.7151C9.59548 70.1211 9.49826 70.6791 9.47258 70.9543C9.39554 71.6547 9.86513 72.3589 10.3347 72.7169C10.6722 72.9747 11.3381 73.3865 11.8866 73.6751L15.702 75.4107L18.8828 76.6615L19.9559 77.0194C19.3029 77.1791 17.8574 77.3542 16.3184 77.3542H6.99988C6.0717 77.3542 4.6409 77.2426 3.80811 77.1079C3.06703 76.9867 2.36081 76.5961 2.22507 76.4286C1.99761 76.1285 1.84902 75.7379 1.83435 75.6859C1.8637 75.4993 2.13518 74.7661 2.5901 73.9714L3.50544 72.3647L5.88643 67.3637L7.06591 64.3792C7.72628 62.7013 8.71316 59.5533 9.26163 57.3616L10.2247 53.5113L10.8117 51.6602C11.1052 50.7366 12.1654 48.8374 13.1266 47.5135L14.972 44.9658L16.6394 42.8049C17.6336 41.5177 19.0809 38.3542 19.9375 35.6045C20.7575 32.9703 21.6967 29.17 22.0305 27.1342C22.3424 25.2176 23.1055 22.4583 23.731 20.9863L24.8903 18.2462L25.5745 16.805C25.7579 16.424 25.9102 15.8871 26.0423 15.3079C28.6489 15.5234 37.2171 16.6626 37.9178 22.1658C37.5748 22.6815 37.2043 23.2761 36.8704 23.8399ZM39.6275 20.1031C39.5321 20.1762 39.4367 20.2435 39.3486 20.3244C37.3492 14.823 29.1753 13.6358 26.3174 13.3953C26.3358 13.1509 26.3578 12.9027 26.3578 12.6718L26.3541 10.4974C26.3596 10.4378 26.9283 4.48231 30.2924 3.06994C34.9774 1.10147 38.8644 1.67488 42.9458 4.80366C43.5401 5.25969 44.1253 5.67148 44.7104 6.09673C40.1594 10.7803 39.6678 18.0134 39.6275 20.1031ZM44.8517 29.4471L44.0354 28.5581C43.7639 28.2714 43.3659 27.7499 43.1861 27.4459C43.043 27.2015 42.8101 26.5588 42.7165 26.0643C42.6174 25.5505 42.5129 24.5615 42.4872 23.9015C42.4579 23.1337 42.3184 22.0157 42.1699 21.35C42.0396 20.7804 41.7846 20.3436 41.4655 20.0492C41.5223 18.073 42.0433 11.3036 46.2531 7.22239C49.1367 9.28515 51.8864 11.2979 55.0066 14.8942C56.3109 16.397 57.8939 18.5522 59.2843 20.6611C54.6416 26.6627 46.5283 29.018 44.8517 29.4471ZM53.1411 37.1478C52.8348 37.0477 52.5229 36.9881 52.268 36.9707C52.1689 36.965 51.0866 37.219 49.6779 37.0843C48.5461 36.9765 47.2162 35.695 46.9942 34.4962C46.7429 33.1223 46.7337 31.4906 46.4366 31.1789L46.3063 31.0365C49.2119 30.1802 55.9385 27.7095 60.3556 22.3332C60.8802 23.1876 61.3498 24.0015 61.724 24.7193C62.8191 26.8167 63.5309 28.635 64.0371 30.2283C59.4733 36.0971 53.2035 37.1266 53.1393 37.1362L53.1411 37.1478ZM66.0513 60.8926C63.2282 63.0111 58.8148 61.6315 56.2155 57.8177C53.6162 54.0058 53.7996 49.1818 56.6227 47.0632C56.8942 46.8593 57.195 46.715 57.494 46.5745C58.0884 47.4385 58.7359 48.3236 59.3632 49.1241L63.6629 54.6081C65.5321 56.9922 66.7905 58.5566 67.4142 59.2801C67.0583 59.9016 66.6217 60.4654 66.0513 60.8926ZM90.0739 78.0739C89.8189 78.0739 89.2925 77.8199 89.043 77.5235C88.5881 76.9847 87.6397 76.1112 86.8858 75.5339C86.1557 74.974 85.0294 74.3717 84.292 74.3717C84.1123 74.3601 83.4482 74.0907 82.8759 73.6385C82.2632 73.1556 80.8691 71.8298 79.8346 70.7426L77.9048 68.7203L72.5375 62.5801L70.971 60.5731C70.5986 60.0998 70.063 59.4244 69.6319 58.9202L68.1443 57.2385C67.46 56.3995 66.4053 55.0853 65.0735 53.3881L60.7775 47.9041C60.2877 47.2807 59.8457 46.6803 59.4403 46.1088L58.2002 44.2808C57.5032 43.1898 57.0813 42.3989 57.0208 42.1565C56.8373 41.2637 56.1513 40.2688 55.4634 39.3221C55.3937 39.2278 55.1956 38.9604 54.9663 38.6679C57.1418 38.031 61.1792 36.3896 64.6516 32.4277C64.8608 33.2974 65.024 34.0902 65.1634 34.7964C65.2937 35.4602 65.4129 36.051 65.5468 36.582C66.3136 39.5934 67.4435 42.9897 68.9092 47.1614C70.1382 50.6615 72.6201 55.8088 73.5648 56.4707C73.6822 56.5669 74.0252 56.9941 74.2985 57.3385C75.1882 58.4565 76.408 59.9843 77.6865 60.4885C77.7856 60.5289 78.3194 60.8002 79.3026 62.4223C79.6676 63.0227 80.1097 63.8251 80.5756 64.6717C81.2929 65.9706 82.0339 67.3137 82.7035 68.3335C84.4608 70.9928 84.9524 71.3468 85.3376 71.4988C85.3578 71.5065 85.5357 71.5835 85.8586 71.978C86.4566 72.7111 87.9222 73.4038 89.265 73.5924C90.4133 73.754 92.0752 74.0446 92.8951 74.2658C93.6784 74.4756 94.735 74.9451 95.1899 75.2299L97.215 76.3979C97.8314 76.7211 98.7926 77.0733 99.4034 77.2003L101.23 77.5216C101.372 77.5486 101.79 77.7467 102.296 78.0739H90.0739Z" fill="#EBBA34"/>
</svg>
