<svg width="86" height="80" viewBox="0 0 86 80" fill="none" xmlns="http://www.w3.org/2000/svg">
<path d="M82.2261 66.7703C81.7441 67.6746 82.5942 70.2755 82.9028 71.2395C82.9246 71.2961 82.9406 71.3537 82.9406 71.4103C82.949 71.5302 83.0895 74.2667 82.142 76.0476C82.1122 76.5037 81.9633 77.6336 81.1914 78.3854C80.7961 78.7631 80.3008 78.9829 79.7268 79.0262C79.3204 79.4172 78.5379 79.7949 77.4765 79.716C77.1084 79.8899 76.3934 80.1235 75.3565 79.8653C74.9773 79.9443 74.1814 80.0254 73.1014 79.6562C72.771 79.716 72.1699 79.7378 71.6772 79.3356C71.1659 78.9258 70.9383 78.2142 70.9841 77.2234C70.8325 77.1369 70.6862 77.0228 70.5506 76.8707C69.9765 76.2135 69.8196 75.0867 70.0961 73.5363C70.1148 73.4574 70.1397 73.3811 70.1775 73.3138C70.2611 73.1671 72.2001 69.8925 74.5744 68.388C74.7639 66.7596 74.9751 64.2176 74.791 63.4413C74.16 60.65 73.5184 56.7074 74.8772 53.6722C73.5047 53.1754 70.6212 52.0513 69.3705 50.9353C68.0411 49.7376 67.0909 48.8284 66.2243 47.7859C65.821 50.1264 63.8553 53.6017 57.8097 58.3804C57.972 60.3682 58.5731 69.6075 56.4749 74.9346L55.2242 74.4428C57.4198 68.8633 56.4509 58.2448 56.4398 58.136C56.4154 57.905 56.5127 57.6825 56.6999 57.5385C65.5151 50.6668 65.2741 46.9931 64.757 45.7281C64.6268 45.4102 64.7624 45.0325 65.0683 44.8729C65.3689 44.7097 65.753 44.8131 65.9402 45.1007C67.1856 47.0315 68.2843 48.1502 70.2611 49.9204C71.4554 50.9874 74.8368 52.2524 76.0444 52.6462C76.2365 52.709 76.3934 52.8584 76.4614 53.0537C76.5317 53.249 76.5184 53.4581 76.4072 53.6374C74.8097 56.3226 75.4681 60.3468 76.0986 63.1381C76.4072 64.4708 75.9252 68.4348 75.8661 68.8861C75.839 69.1028 75.7091 69.2905 75.5251 69.3913C73.5487 70.4935 71.7537 73.3174 71.4016 73.8899C71.1579 75.3752 71.4585 75.8585 71.559 75.9669C71.5643 75.9669 71.575 75.9669 71.5808 75.9669C71.7755 75.9669 72.0192 76.0944 72.149 76.2358C72.2846 76.3856 72.4033 76.638 72.3766 76.8333C72.2522 77.7184 72.382 78.1665 72.5283 78.2833C72.631 78.3703 72.8746 78.327 72.9155 78.3127C73.0725 78.2615 73.2214 78.2615 73.3837 78.3185C74.4531 78.7283 75.1409 78.5384 75.1627 78.5277C75.2818 78.4844 75.4335 78.4898 75.5553 78.517C76.4757 78.7885 76.9576 78.4764 76.9768 78.463C77.1093 78.381 77.288 78.3297 77.4503 78.3515C78.4787 78.4902 78.8527 78.0015 78.8638 77.9797C78.9936 77.8053 79.2101 77.6862 79.4271 77.6862C79.4431 77.6862 79.484 77.692 79.5085 77.6862C79.8251 77.6862 80.0718 77.5966 80.2586 77.4067C80.7023 76.9911 80.805 76.1412 80.805 75.8483C80.805 75.7283 80.8375 75.6151 80.8971 75.5143C81.5631 74.3795 81.6334 72.3623 81.6067 71.569C80.9673 69.6062 80.3613 67.42 81.0385 66.1336C82.4973 63.3726 84.4523 54.9149 84.4714 54.8279C85.3651 48.8685 82.6249 44.8934 80.8113 42.2595C78.1742 38.4368 73.1628 36.0678 73.1116 36.0486C72.9218 35.9617 72.7786 35.7704 72.7323 35.5653C71.5221 29.2202 66.0127 27.5775 63.1075 27.5775C62.9047 27.5775 62.7149 27.5856 62.5392 27.5856C56.4447 27.5856 49.5601 23.9823 49.2648 23.8235C49.043 23.704 48.9025 23.4757 48.9025 23.2265C48.9025 18.7573 49.701 16.3504 49.7308 16.25C51.3444 13.6206 51.3092 12.4528 51.1545 11.9792C51.0411 11.6261 50.8135 11.5231 50.7864 11.5177C50.4991 11.4036 50.2964 11.0901 50.3426 10.7767C51.5013 3.00562 45.8674 1.58991 45.6238 1.53685C45.618 1.53685 44.1209 1.25861 43.0814 1.35938C43.0325 1.35938 42.9458 1.35938 42.9107 1.35938C41.8413 1.26441 40.3443 1.54264 40.3331 1.54264C40.1193 1.59838 34.4903 3.00607 35.6441 10.7767C35.6983 11.1035 35.4951 11.4241 35.1786 11.5231C35.1732 11.5231 34.9456 11.6261 34.8322 11.9792C34.6726 12.4586 34.6374 13.6259 36.1803 16.1091C36.2803 16.3508 37.0767 18.7524 37.0767 23.2269C37.0767 23.4766 36.9357 23.7045 36.7139 23.824C36.4213 23.9827 29.534 27.586 23.4448 27.586C23.2581 27.586 23.074 27.5695 22.8766 27.578C19.966 27.578 14.4673 29.2206 13.2464 35.5657C13.2086 35.7708 13.0756 35.9461 12.8889 36.0384C12.8346 36.0656 7.99085 38.5269 5.38399 42.2871L5.11588 42.684C3.22354 45.4071 0.646029 49.124 1.51261 54.8912C1.52328 54.9265 3.47831 63.3842 4.93181 66.1452C5.61431 67.424 5.00517 69.612 4.36846 71.5784C4.35245 72.0341 4.32533 74.2497 5.07809 75.5263C5.13767 75.6271 5.17013 75.7435 5.17546 75.863C5.17546 76.151 5.27284 76.9951 5.71702 77.4187C5.9091 77.6033 6.15276 77.6983 6.46978 77.6983C6.5049 77.6983 6.52669 77.6983 6.55337 77.6983C6.78635 77.6983 7.00289 77.8124 7.12205 78.0104C7.12738 78.0162 7.48486 78.5022 8.51907 78.3636C8.68447 78.339 8.86544 78.3881 9.00372 78.4831C9.01705 78.4831 9.50748 78.801 10.4225 78.5321C10.5577 78.4911 10.6986 78.4965 10.8231 78.5451C10.8396 78.5451 11.5216 78.7354 12.5856 78.331C12.7479 78.2739 12.908 78.2739 13.0592 78.3257C13.1054 78.339 13.338 78.3854 13.4518 78.298C13.5927 78.1758 13.7172 77.7282 13.5927 76.8484C13.5656 76.65 13.6332 76.4467 13.7661 76.3022C13.9017 76.1421 14.0965 76.0119 14.2944 76.0882C14.2672 76.0797 14.3539 76.069 14.4349 75.9602C14.5567 75.8006 14.7977 75.2954 14.5731 73.9104C14.2241 73.3348 12.4127 70.5082 10.4443 69.4087C10.2629 69.3079 10.1331 69.1206 10.106 68.9035C10.0464 68.4553 9.56439 64.4913 9.86496 63.1554C10.4986 60.3668 11.1619 56.3511 9.55906 53.6552C9.45635 53.4809 9.4399 53.2642 9.50748 53.0711C9.5724 52.8838 9.73468 52.7318 9.92454 52.6667C11.1322 52.2676 14.5109 51.0026 15.7047 49.9409C17.6891 48.1729 18.7775 47.0573 20.0256 45.1324C20.215 44.8336 20.5832 44.7253 20.9002 44.8992C21.2034 45.0566 21.3386 45.4204 21.2088 45.7517C20.6997 47.0141 20.464 50.6931 29.2686 57.5621C29.45 57.7031 29.5531 57.926 29.5313 58.157C29.5207 58.2653 28.554 68.895 30.7469 74.4611L29.4935 74.9551C27.398 69.628 27.996 60.3882 28.1561 58.4009C22.1078 53.6276 20.1421 50.1469 19.7468 47.8091C18.8829 48.852 17.9354 49.7639 16.6006 50.9562C15.3441 52.0776 12.4585 53.2013 11.0939 53.6958C12.4531 56.7368 11.8111 60.6789 11.1753 63.4591C11.0045 64.2327 11.2104 66.7797 11.3972 68.4112C13.7715 69.9072 15.7127 73.1845 15.7941 73.3339C15.8403 73.4017 15.8617 73.4779 15.8755 73.5622C16.1462 75.1125 15.9946 76.2335 15.421 76.8881C15.2828 77.0428 15.1338 77.157 14.9822 77.2466C15.0338 78.2294 14.8061 78.9437 14.2948 79.3588C13.7964 79.7659 13.1983 79.7414 12.8626 79.6736C11.7902 80.0459 10.9917 79.9643 10.6102 79.8858C10.2856 79.9648 9.9819 80 9.72223 80C9.15622 80 8.73382 79.856 8.49017 79.7365C7.39371 79.8288 6.65474 79.4404 6.24568 79.0467C5.67434 78.9981 5.17324 78.7778 4.78108 78.4033C4.01765 77.6568 3.86603 76.5301 3.83357 76.0686C2.88073 74.2876 3.02435 71.5503 3.03235 71.4312C3.03235 71.3715 3.04569 71.3171 3.06481 71.2573C3.41118 70.1899 4.22351 67.6924 3.74153 66.7935C2.20401 63.8747 0.270763 55.5092 0.189396 55.1565C-0.766112 48.8115 2.10886 44.6704 4.00698 41.9255L4.28309 41.5403C6.733 37.9927 10.8458 35.609 11.9885 34.9981C13.4936 28.0555 19.6232 26.243 22.8859 26.243C23.0673 26.243 23.2541 26.2483 23.4355 26.2483C28.4469 26.2483 34.2382 23.5591 35.7272 22.8314C35.673 18.8688 34.9745 16.7196 34.9718 16.6982C33.6099 14.5369 33.1146 12.7324 33.5801 11.4852C33.7535 11.0295 34.0132 10.7321 34.2515 10.5461C33.1982 1.89579 39.9912 0.255793 40.0615 0.23662C40.1588 0.21923 41.7995 -0.0915587 43.0209 0.0306164C44.193 -0.0969095 45.8283 0.213879 45.8986 0.23439C45.9964 0.256239 52.7948 1.89624 51.7361 10.5466C51.974 10.7299 52.2425 11.0299 52.4021 11.4834C52.8677 12.7284 52.3804 14.5324 50.9535 16.835C50.9696 16.835 50.3093 18.9758 50.2604 22.8328C51.7468 23.5631 57.5429 26.2497 62.5521 26.2497C62.7335 26.2497 62.9096 26.2443 63.107 26.2443C66.3639 26.2443 72.4936 28.0515 73.9933 34.991C75.1849 35.5885 79.4351 37.8964 81.8828 41.4435C83.8618 44.316 86.7884 48.5627 85.8027 55.1008C85.6973 55.4919 83.7694 63.8573 82.2261 66.7703ZM64.8851 42.0058C64.8851 41.6299 64.5845 41.3271 64.2084 41.3271C63.8349 41.3271 63.537 41.6299 63.537 42.0058C63.537 46.1575 59.5789 49.5378 54.716 49.5378C49.8589 49.5378 45.9035 46.1575 45.9035 42.0058V37.7635C45.9035 37.385 45.6029 37.0876 45.2294 37.0876C44.8555 37.0876 44.5527 37.385 44.5527 37.7635V42.0004C44.5527 46.9039 49.1172 50.8871 54.716 50.8871C60.3179 50.8871 64.8851 46.9008 64.8851 42.0058ZM22.4626 42.0058C22.4626 41.6299 22.1647 41.3271 21.7912 41.3271C21.4151 41.3271 21.1145 41.6299 21.1145 42.0058C21.1145 46.9066 25.6791 50.8898 31.2778 50.8898C36.8819 50.8898 41.4416 46.9013 41.4416 42.0058V37.7635C41.4416 37.385 41.1464 37.0876 40.7729 37.0876C40.3967 37.0876 40.0988 37.385 40.0988 37.7635V42.0004C40.0988 46.1521 36.1403 49.5374 31.2778 49.5374C26.4212 49.5378 22.4626 46.1571 22.4626 42.0058ZM56.7684 45.7553C56.7684 44.938 56.1241 44.2731 55.3171 44.2731C54.527 44.2731 53.877 44.938 53.877 45.7553C53.877 46.578 54.5212 47.2321 55.3171 47.2321C56.1161 47.2325 56.7684 46.578 56.7684 45.7553ZM32.1173 45.7553C32.1173 44.938 31.4757 44.2731 30.6718 44.2731C29.8675 44.2731 29.2285 44.938 29.2285 45.7553C29.2285 46.578 29.8701 47.2321 30.6718 47.2321C31.4735 47.2321 32.1173 46.578 32.1173 45.7553ZM42.9796 52.5244C37.6053 52.5244 33.2329 56.9067 33.2329 62.2989V73.9849C33.2329 74.3541 33.5334 74.6555 33.9043 74.6555C34.2777 74.6555 34.581 74.3541 34.581 73.9849V62.2989C34.581 57.6558 38.3416 53.8848 42.9738 53.8848C47.6037 53.8848 51.3666 57.6558 51.3666 62.2989V74.4192C51.3666 74.7942 51.6672 75.0956 52.0433 75.0956C52.4115 75.0956 52.7147 74.7942 52.7147 74.4192V62.2989C52.7236 56.9067 48.3538 52.5244 42.9796 52.5244ZM45.9332 61.7206C45.9386 61.7206 45.9439 61.7206 45.9492 61.7206C47.8607 61.7206 49.2306 60.3601 49.2849 60.3031C49.545 60.0337 49.545 59.6133 49.2795 59.3448C49.011 59.076 48.5859 59.0898 48.3262 59.3502C48.3178 59.3609 47.2862 60.3655 45.9488 60.3655C45.9435 60.3655 45.9435 60.3655 45.9381 60.3655C45.148 60.3601 44.3815 59.9749 43.6505 59.2744V57.3191C43.6505 56.9446 43.3553 56.6405 42.9818 56.6405C42.6056 56.6405 42.3077 56.945 42.3077 57.3191V59.2793C41.5763 59.9691 40.8213 60.3543 40.0361 60.3655C40.0308 60.3655 40.0255 60.3655 40.0148 60.3655C38.6716 60.3655 37.6431 59.3582 37.6378 59.3448C37.3724 59.0898 36.95 59.0867 36.6845 59.3502C36.4191 59.6137 36.4164 60.0342 36.6792 60.3035C36.7388 60.3606 38.098 61.721 40.0148 61.721C40.0201 61.721 40.0255 61.721 40.0312 61.721C40.8325 61.7152 41.5852 61.4004 42.3082 60.9389V63.4069C41.5768 64.0994 40.8218 64.4873 40.0366 64.4985C40.0312 64.4985 40.0206 64.4985 40.0095 64.4985C38.672 64.4985 37.6405 63.4961 37.6378 63.4832C37.3724 63.2277 36.95 63.2223 36.6845 63.4885C36.4191 63.7463 36.4164 64.1725 36.6792 64.4387C36.7388 64.4989 38.098 65.8478 40.0095 65.8478C40.0201 65.8478 40.0259 65.8478 40.0312 65.8478C40.8325 65.8451 41.5852 65.533 42.3082 65.0714V68.0906C41.5768 68.78 40.8218 69.1737 40.0366 69.1768C40.0312 69.1768 40.0206 69.1768 40.0095 69.1768C38.672 69.1768 37.6405 68.1802 37.6378 68.1615C37.3724 67.9064 36.95 67.9033 36.6845 68.1668C36.4191 68.4304 36.4164 68.8509 36.6792 69.1202C36.7388 69.1772 38.098 70.5377 40.0095 70.5377C40.0201 70.5377 40.0259 70.5377 40.0312 70.5377C40.8325 70.5319 41.5852 70.2117 42.3082 69.7498V70.844C42.3082 71.219 42.6056 71.5178 42.9822 71.5178C43.3562 71.5178 43.6536 71.219 43.6536 70.844V69.7444C44.3846 70.2113 45.132 70.5319 45.9332 70.5372C45.9386 70.5372 45.9492 70.5372 45.955 70.5372C47.8665 70.5372 49.2306 69.1795 49.2849 69.1197C49.5476 68.8504 49.545 68.4299 49.2795 68.1615C49.011 67.898 48.5859 67.9033 48.3262 68.1668C48.3178 68.1802 47.2862 69.1773 45.9546 69.1773C45.9488 69.1773 45.9439 69.1773 45.9381 69.1773C45.148 69.1773 44.3815 68.7862 43.6532 68.0857V65.0665C44.3842 65.528 45.1316 65.846 45.9328 65.8513C45.9381 65.8513 45.9488 65.8513 45.9546 65.8513C47.8634 65.8513 49.2302 64.5025 49.2844 64.4396C49.5472 64.1734 49.5445 63.7472 49.2791 63.4894C49.0136 63.2232 48.5912 63.2286 48.3258 63.4841C48.3173 63.497 47.2916 64.4994 45.9541 64.4994C45.9435 64.4994 45.9324 64.4994 45.9324 64.4994C45.1418 64.4882 44.381 64.0999 43.6527 63.4047V60.934C44.3766 61.3942 45.1267 61.7148 45.9332 61.7206ZM42.9849 73.7646C42.2944 73.7646 41.7395 74.3184 41.7395 75.0055C41.7395 75.7007 42.2948 76.2545 42.9849 76.2545C43.6674 76.2545 44.2143 75.7007 44.2143 75.0055C44.2143 74.3264 43.6674 73.7646 42.9849 73.7646ZM18.553 38.1015C9.13132 38.8912 8.21895 47.2486 8.21628 47.3302C8.17848 47.7048 8.45193 48.0303 8.82008 48.0713C8.84142 48.0713 8.86321 48.0713 8.88233 48.0713C9.22336 48.0713 9.51859 47.8078 9.55372 47.4662C9.58618 47.1643 10.3821 40.1406 18.6668 39.4454C19.035 39.4116 19.3111 39.0914 19.2871 38.7137C19.252 38.3606 18.9625 38.0908 18.6157 38.0908C18.5966 38.0989 18.5748 38.1015 18.553 38.1015ZM76.4245 47.6802C76.4517 48.0329 76.7438 48.3098 77.0933 48.3098C77.1119 48.3098 77.1226 48.3045 77.1444 48.3045C77.5183 48.2773 77.7887 47.9545 77.77 47.5826C77.0822 38.1216 68.7489 37.1402 68.6644 37.1295C68.3261 37.1509 67.969 37.3627 67.9255 37.7323C67.8792 38.1015 68.1558 38.4382 68.5239 38.4774C68.8134 38.5046 75.8123 39.3639 76.4245 47.6802Z" fill="#EBBA34"/>
</svg>
