<svg width="66" height="79" viewBox="0 0 66 79" fill="none" xmlns="http://www.w3.org/2000/svg">
<path d="M38.779 15.702V3.43732C38.779 3.05624 38.5291 2.69076 38.0841 2.42123C37.6391 2.1517 37.0355 2.00019 36.4061 2H4.37291C3.74347 2.00019 3.13991 2.1517 2.69494 2.42123C2.24996 2.69076 2 3.05624 2 3.43732V28.637C2 29.018 2.25 29.3834 2.69501 29.6528C3.14002 29.9222 3.74358 30.0736 4.37291 30.0736H28.4181L31.2069 20.3895C33.3703 16.0626 38.779 15.702 38.779 15.702Z" stroke="#EBBA34" stroke-width="2.39756" stroke-linecap="round" stroke-linejoin="round"/>
<path d="M8.33984 13.1028H22.426" stroke="#EBBA34" stroke-width="2.39756" stroke-miterlimit="10"/>
<path d="M8.33984 21.7332H22.426" stroke="#EBBA34" stroke-width="2.39756" stroke-miterlimit="10"/>
<path d="M33.1387 8.85669L29.1065 12.8889L27.0591 10.8415" stroke="#EBBA34" stroke-width="1.91842" stroke-linecap="round" stroke-linejoin="round"/>
<path d="M46.0159 45.1963C45.156 46.2738 44.0645 47.1438 42.8224 47.7417C41.5803 48.3396 40.2195 48.6501 38.8409 48.6501C37.4624 48.6501 36.1016 48.3396 34.8594 47.7417C33.6173 47.1438 32.5258 46.2738 31.666 45.1963C15.5119 47.3967 13.8667 57.5337 13.8667 69.7219C13.8667 70.5758 17.4894 72.5786 21.5746 72.5786L21.6095 72.5112C21.6095 72.9134 21.6095 73.3072 21.6095 73.683C27.0902 75.8734 32.9382 76.9991 38.8403 76.9998C44.7486 77.0007 50.6006 75.8516 56.0699 73.6168C56.0699 73.2555 56.0699 72.8869 56.0699 72.5064L56.106 72.5786C60.1936 72.5786 63.8139 70.5758 63.8139 69.7219C63.8152 57.5337 62.1893 47.3942 46.0159 45.1963Z" stroke="#EBBA34" stroke-width="2.39756" stroke-linecap="round" stroke-linejoin="round"/>
<path d="M49.2038 28.3647C49.2038 35.3115 44.2804 41.3863 39.2931 41.3863C34.3059 41.3863 29.7197 35.303 29.3824 28.3647C29.0452 21.4264 33.1629 15.7852 39.2931 15.7852C45.4233 15.7852 49.2038 21.4168 49.2038 28.3647Z" stroke="#EBBA34" stroke-width="2.39756" stroke-linecap="round" stroke-linejoin="round"/>
<path d="M15.8514 60.3552C15.8514 61.2091 17.9326 63.212 22.0202 63.212" stroke="#EBBA34" stroke-width="2.39756" stroke-linecap="round" stroke-linejoin="round"/>
<path d="M64.257 69.6047C64.257 70.4598 60.6343 72.4627 56.5491 72.4627" stroke="#EBBA34" stroke-width="2.39756" stroke-linecap="round" stroke-linejoin="round"/>
<path d="M64.257 69.6044C64.257 57.4187 62.6311 47.278 46.4578 45.0789C45.598 46.1563 44.5066 47.0263 43.2646 47.6242C42.0226 48.2221 40.6619 48.5326 39.2834 48.5326C37.905 48.5326 36.5442 48.2221 35.3022 47.6242C34.0602 47.0263 32.9688 46.1563 32.109 45.0789C15.9537 47.2804 14.3086 57.4199 14.3086 69.6044" stroke="#EBBA34" stroke-width="2.39756" stroke-linecap="round" stroke-linejoin="round"/>
<path d="M23.7435 57.7944C22.008 62.2144 22.0574 68.9408 22.0574 73.5716C27.5379 75.7609 33.3853 76.8862 39.287 76.8872C45.1953 76.8882 51.0473 75.7392 56.5166 73.5041C56.5166 69.3009 56.4804 63.2466 55.2544 59.041" stroke="#EBBA34" stroke-width="2.39756" stroke-linecap="round" stroke-linejoin="round"/>
</svg>
