<svg width="40" height="40" viewBox="0 0 40 40" fill="none" xmlns="http://www.w3.org/2000/svg">
<path d="M29.3275 15.3858C29.2802 15.2716 29.2001 15.1739 29.0973 15.1052C28.9946 15.0365 28.8737 14.9999 28.7501 14.9998H26.3728C26.0404 14.4343 25.5673 13.9645 24.9996 13.6359C24.4319 13.3074 23.7888 13.1313 23.1329 13.1248C22.6443 13.1184 22.1593 13.2098 21.7064 13.3936C21.2536 13.5774 20.8422 13.8499 20.4962 14.1951C20.1402 14.5445 19.8576 14.9616 19.6651 15.4218C19.4725 15.882 19.374 16.376 19.3751 16.8748V17.3506C16.2298 16.5209 13.6572 13.9623 13.6298 13.935C13.546 13.8504 13.4397 13.7915 13.3235 13.7653C13.2073 13.7391 13.086 13.7466 12.974 13.787C12.8619 13.8274 12.7638 13.899 12.691 13.9933C12.6183 14.0876 12.574 14.2007 12.5634 14.3194C12.2267 18.053 13.3111 20.5514 14.2822 21.9897C14.7557 22.7007 15.3317 23.3378 15.9915 23.8803C14.8017 25.2498 12.9282 25.9694 12.9079 25.9772C12.8197 26.0102 12.7402 26.0627 12.6751 26.1308C12.6101 26.199 12.5613 26.2809 12.5324 26.3705C12.5034 26.4601 12.4951 26.5551 12.5081 26.6484C12.521 26.7417 12.5549 26.8308 12.6072 26.9092C12.6657 26.9967 12.9001 27.3037 13.4728 27.5905C14.1806 27.9451 15.1157 28.1248 16.2501 28.1248C21.7712 28.1248 26.3845 23.8733 26.8556 18.403L29.1923 16.067C29.2797 15.9796 29.3392 15.8682 29.3632 15.7469C29.3873 15.6256 29.3748 15.5 29.3275 15.3858ZM25.8118 17.6834C25.7047 17.7908 25.6403 17.9336 25.6306 18.085C25.3126 23.0139 21.1939 26.8748 16.2501 26.8748C15.4251 26.8748 14.8439 26.7655 14.4361 26.6342C15.3353 26.1459 16.5892 25.3061 17.3954 24.0967C17.4428 24.0256 17.475 23.9455 17.4902 23.8615C17.5053 23.7774 17.5031 23.6911 17.4836 23.608C17.4642 23.5248 17.4279 23.4465 17.3769 23.3779C17.326 23.3093 17.2616 23.2519 17.1876 23.2092C17.1509 23.1881 13.7572 21.1514 13.7501 15.7092C15.0001 16.7248 17.2853 18.3006 19.8962 18.7397C19.9857 18.7548 20.0774 18.7502 20.1649 18.7262C20.2525 18.7023 20.3337 18.6596 20.4031 18.6011C20.4725 18.5426 20.5283 18.4697 20.5666 18.3874C20.6049 18.3052 20.6249 18.2156 20.6251 18.1248V16.8748C20.6244 16.5414 20.6904 16.2113 20.8192 15.9037C20.948 15.5962 21.137 15.3176 21.3751 15.0842C21.6034 14.8555 21.8751 14.6749 22.1744 14.5531C22.4736 14.4312 22.7942 14.3706 23.1173 14.3748C24.1064 14.3873 25.0306 14.9905 25.4173 15.8756C25.4661 15.9869 25.5462 16.0816 25.6479 16.148C25.7496 16.2145 25.8685 16.2499 25.99 16.2498H27.24L25.8118 17.6834Z" fill="white"/>
<circle cx="20" cy="20" r="19.5" stroke="white"/>
<circle cx="20" cy="20" r="19.5" stroke="white"/>
<circle cx="20" cy="20" r="19.5" stroke="white"/>
</svg>
